<svg width="1000" height="100" viewBox="0 0 1000 100" fill="none" xmlns="http://www.w3.org/2000/svg">
<g clip-path="url(#clip0)">
<rect width="1000" height="100" fill="#2B7670"/>
<path opacity="0.6" d="M166.769 139C167.544 134.241 166.406 130.028 162.747 126.778C157.923 122.494 151.904 122.059 145.884 122.41C141.171 122.687 136.511 123.088 131.882 121.896C124.799 120.071 119.341 114.938 121.339 107.092C121.933 104.752 122.163 102.118 121.233 99.6106C118.221 91.5049 111 87.7929 102.996 87.0496C99.1202 86.689 95.5411 88.0832 91.8822 89.0156C87.5102 90.1327 83.0363 91.4873 78.5713 90.0667C72.3831 88.1008 68.9501 85.0397 70.7308 77.5453C71.6212 73.7894 72.2369 69.919 70.9878 66.0839C68.5515 58.6027 62.505 55.8407 56.1042 55.3042C52.4897 55.0007 48.853 55.3657 45.2118 54.8951C41.3226 54.3937 37.7302 53.4613 34.5453 51.0908C29.3449 47.2248 26.3284 39.7832 31.8964 33.4368C35.2673 29.5972 37.6903 25.2211 39.1875 20.4008C41.6327 12.5282 39.8653 3.87716 31.8831 -0.762842C28.9773 -2.4517 25.8012 -3.49406 22.5499 -4.28571C18.3994 -5.29728 14.4614 -6.70026 11.2234 -9.59863C7.83032 -12.6421 6.93993 -15.4569 8.09608 -19.7494C8.81367 -22.4147 10.5324 -24.4466 12.1137 -26.5841C13.7704 -28.8271 15.5157 -31.0658 16.5168 -33.6606C18.8157 -39.6201 19.8213 -45.7202 18.8601 -52.1898C18.1247 -57.1201 16.1225 -61.417 12.4725 -64.4342C6.11603 -69.6855 -1.19282 -73.3359 -9.66667 -74L-11 -74L-11 139L166.769 139Z" fill="#274F4C"/>
<path opacity="0.6" d="M715.517 186.871C692.288 171.617 672.073 172.003 664.167 172.945C670.434 168.082 677.056 162.663 683.896 156.811C690.944 157.988 703.571 182.556 738.298 163.985C714.469 148.34 691.472 153.933 684.673 156.145C691.804 150.023 699.164 143.436 706.618 136.52C718.249 147.598 747.245 155.035 764.367 139.362C724.855 118.032 715.188 138.158 707.036 136.134C714.568 129.129 722.193 121.785 729.755 114.243C747.89 121.254 768.293 120.96 781.267 107.47C764.762 95.5389 741.704 106.267 732.58 111.412C741.823 102.113 750.952 92.5392 759.694 82.9432C778.277 88.4001 801.417 95.5628 817.965 79.6903C799.281 67.5221 773.182 75.7086 762.328 80.0328C769.39 72.205 776.175 64.3809 782.539 56.6882C798.656 62.9601 815.036 62.3883 829.801 45.5424C805.347 43.1404 792.853 47.5912 786.796 51.4845C796.421 39.5812 804.933 28.0869 811.784 17.5172C830.459 24.7855 852.049 20.6138 863.015 4.72781C838.287 2.84688 817.823 13.389 812.476 16.4428C818.976 6.29921 823.905 -2.97047 826.758 -10.8964C831.317 -18.7081 837.915 -34.2995 833.241 -53.7922C818.051 -43.8221 816.347 -23.4659 822.934 -5.76416C819.364 2.26324 813.914 11.6552 806.617 22.3425C806.32 20.3096 805.932 16.9504 805.939 13.1733C805.942 10.9449 806.804 3.81621 806.493 1.08254C805.388 -8.56556 802.735 -15.1324 792.9 -26.5216C783.544 -9.90717 791.459 9.83486 805.896 23.3949C804.072 26.0445 802.135 28.7702 800.088 31.5761C794.495 39.2313 788.127 47.3724 781.121 55.8378C782.201 49.2202 783.672 31.5545 772.076 18.1293C765.414 29.9565 769.516 47.6861 779.653 57.6064C773.183 65.3661 766.187 73.3848 758.772 81.539C758.125 81.8291 757.678 82.0421 757.458 82.1528C756.898 78.2452 756.396 70.6376 759.743 65.2785C764.397 57.9699 753.89 29.9293 741.022 18.1699C729.867 37.989 739.54 67.3205 756.823 83.6742C753.901 86.8683 750.915 90.0771 747.875 93.2999C742.864 98.6095 737.781 103.861 732.674 109.014C734.82 101.641 738.986 79.1211 719.188 56.1987C707.985 76.1008 713.682 94.7742 730.965 110.732C722.755 118.977 714.494 126.961 706.36 134.526C707.192 128.224 708.89 106.303 694.872 92.6073C686.804 106.938 695.566 127.151 705.239 135.564C698.456 141.852 691.771 147.838 685.288 153.44C686.723 146.143 688.816 125.562 672.469 106.635C663.159 123.173 669.182 141.591 683.402 155.065C676.42 161.049 669.691 166.563 663.347 171.487C662.91 168.313 663.017 164.294 665.175 160.838C669.495 154.052 659.918 125.653 647.972 114.734C638.223 132.05 646.571 157.665 660.998 173.296C660.909 173.364 660.816 173.435 660.727 173.503C660.654 173.522 660.614 173.529 660.614 173.529C660.631 173.53 660.653 173.54 660.673 173.545C651.587 180.487 643.36 186.141 636.424 190.146L637.238 191.557C644.451 187.393 652.891 181.576 662.142 174.494C663.007 175.384 663.894 176.234 664.798 177.046C664.798 177.046 664.788 177.018 664.77 176.978C672.739 185.337 689.472 204.576 715.517 186.871ZM757.474 82.2882C757.635 82.3349 757.796 82.3815 757.957 82.4282C757.823 82.5726 757.695 82.7189 757.561 82.8634C757.535 82.683 757.504 82.4943 757.474 82.2882Z" fill="#274F4C"/>
<path d="M525.455 251.271C497.579 323.067 586.797 452.103 757.178 473.356C905.575 491.867 1026.84 358.363 1062.98 295.765C1134.5 178.732 1085.41 56.4156 983.366 19.9782C881.323 -16.4592 867.361 107.657 757.71 104.546C608.662 94.8184 553.332 179.475 525.455 251.271Z" fill="#3EA39A"/>
<path d="M101.342 53.919C101.342 54.465 101.51 54.8535 101.846 55.0845C102.203 55.3155 102.697 55.431 103.327 55.431C103.642 55.431 103.967 55.41 104.303 55.368C104.639 55.305 104.933 55.2315 105.185 55.1475C105.374 55.3785 105.532 55.641 105.658 55.935C105.805 56.208 105.878 56.544 105.878 56.943C105.878 57.741 105.574 58.392 104.965 58.896C104.377 59.4 103.327 59.652 101.815 59.652C99.9665 59.652 98.5385 59.232 97.5305 58.392C96.5435 57.552 96.05 56.187 96.05 54.297V40.815C96.281 40.752 96.6066 40.689 97.0266 40.626C97.4676 40.542 97.9296 40.5 98.4126 40.5C99.3365 40.5 100.051 40.668 100.555 41.004C101.08 41.319 101.342 42.0015 101.342 43.0515V45.0675H105.469C105.595 45.2985 105.71 45.5925 105.815 45.9495C105.941 46.2855 106.004 46.6635 106.004 47.0835C106.004 47.8185 105.836 48.354 105.5 48.69C105.185 49.005 104.755 49.1625 104.209 49.1625H101.342V53.919Z" fill="white"/>
<path d="M124.259 51.525C124.259 52.827 124.06 53.9925 123.661 55.0215C123.262 56.0295 122.695 56.88 121.96 57.573C121.246 58.266 120.385 58.791 119.377 59.148C118.369 59.505 117.245 59.6835 116.006 59.6835C114.767 59.6835 113.644 59.4945 112.636 59.1165C111.628 58.7385 110.756 58.203 110.021 57.51C109.307 56.796 108.751 55.935 108.352 54.927C107.953 53.919 107.753 52.785 107.753 51.525C107.753 50.286 107.953 49.1625 108.352 48.1545C108.751 47.1465 109.307 46.296 110.021 45.603C110.756 44.889 111.628 44.343 112.636 43.965C113.644 43.587 114.767 43.398 116.006 43.398C117.245 43.398 118.369 43.5975 119.377 43.9965C120.385 44.3745 121.246 44.9205 121.96 45.6345C122.695 46.3275 123.262 47.178 123.661 48.186C124.06 49.194 124.259 50.307 124.259 51.525ZM113.234 51.525C113.234 52.806 113.476 53.793 113.959 54.486C114.463 55.158 115.156 55.494 116.038 55.494C116.92 55.494 117.592 55.1475 118.054 54.4545C118.537 53.7615 118.778 52.785 118.778 51.525C118.778 50.265 118.537 49.299 118.054 48.627C117.571 47.934 116.888 47.5875 116.006 47.5875C115.124 47.5875 114.442 47.934 113.959 48.627C113.476 49.299 113.234 50.265 113.234 51.525Z" fill="white"/>
<path d="M126.872 44.091C127.082 44.028 127.407 43.965 127.848 43.902C128.31 43.839 128.783 43.8075 129.266 43.8075C129.728 43.8075 130.137 43.839 130.494 43.902C130.872 43.965 131.187 44.091 131.439 44.28C131.691 44.469 131.88 44.7315 132.006 45.0675C132.153 45.3825 132.227 45.8025 132.227 46.3275V53.1C132.227 53.961 132.437 54.5805 132.857 54.9585C133.277 55.3155 133.886 55.494 134.684 55.494C135.167 55.494 135.555 55.452 135.849 55.368C136.164 55.284 136.406 55.2 136.574 55.116V44.091C136.784 44.028 137.109 43.965 137.55 43.902C138.012 43.839 138.485 43.8075 138.968 43.8075C139.43 43.8075 139.839 43.839 140.196 43.902C140.574 43.965 140.889 44.091 141.141 44.28C141.393 44.469 141.582 44.7315 141.708 45.0675C141.855 45.3825 141.929 45.8025 141.929 46.3275V55.9035C141.929 56.9535 141.488 57.741 140.606 58.266C139.871 58.728 138.989 59.0745 137.96 59.3055C136.952 59.5575 135.849 59.6835 134.652 59.6835C133.518 59.6835 132.468 59.5575 131.502 59.3055C130.557 59.0535 129.738 58.665 129.045 58.14C128.352 57.615 127.817 56.943 127.439 56.124C127.061 55.284 126.872 54.276 126.872 53.1V44.091Z" fill="white"/>
<path d="M153.837 47.619C153.312 47.619 152.808 47.703 152.325 47.871C151.863 48.039 151.453 48.291 151.096 48.627C150.76 48.942 150.487 49.341 150.277 49.824C150.067 50.307 149.962 50.874 149.962 51.525C149.962 52.827 150.33 53.8035 151.065 54.4545C151.821 55.1055 152.734 55.431 153.805 55.431C154.435 55.431 154.981 55.3575 155.443 55.2105C155.905 55.0635 156.315 54.906 156.672 54.738C157.092 55.032 157.407 55.3575 157.617 55.7145C157.827 56.0505 157.932 56.46 157.932 56.943C157.932 57.804 157.522 58.476 156.703 58.959C155.884 59.421 154.75 59.652 153.301 59.652C151.978 59.652 150.781 59.463 149.71 59.085C148.639 58.686 147.715 58.14 146.938 57.447C146.182 56.733 145.594 55.8825 145.174 54.8955C144.754 53.9085 144.544 52.8165 144.544 51.6195C144.544 50.2335 144.765 49.026 145.206 47.997C145.668 46.947 146.287 46.086 147.064 45.414C147.841 44.742 148.734 44.238 149.742 43.902C150.771 43.566 151.852 43.398 152.986 43.398C154.498 43.398 155.664 43.671 156.483 44.217C157.302 44.763 157.711 45.4665 157.711 46.3275C157.711 46.7265 157.617 47.1045 157.428 47.4615C157.239 47.7975 157.018 48.0915 156.766 48.3435C156.409 48.1755 155.979 48.018 155.475 47.871C154.971 47.703 154.425 47.619 153.837 47.619Z" fill="white"/>
<path d="M167.169 55.7775C167.526 55.7775 167.915 55.746 168.335 55.683C168.776 55.599 169.101 55.494 169.311 55.368V52.848L167.043 53.037C166.455 53.079 165.972 53.205 165.594 53.415C165.216 53.625 165.027 53.94 165.027 54.36C165.027 54.78 165.185 55.1265 165.5 55.3995C165.836 55.6515 166.392 55.7775 167.169 55.7775ZM166.917 43.398C168.051 43.398 169.08 43.5135 170.004 43.7445C170.949 43.9755 171.747 44.3325 172.398 44.8155C173.07 45.2775 173.585 45.876 173.942 46.611C174.299 47.325 174.477 48.1755 174.477 49.1625V56.2185C174.477 56.7645 174.32 57.216 174.005 57.573C173.711 57.909 173.354 58.203 172.934 58.455C171.569 59.274 169.647 59.6835 167.169 59.6835C166.056 59.6835 165.048 59.5785 164.145 59.3685C163.263 59.1585 162.497 58.8435 161.846 58.4235C161.216 58.0035 160.722 57.468 160.365 56.817C160.029 56.166 159.861 55.41 159.861 54.549C159.861 53.1 160.292 51.987 161.153 51.21C162.014 50.433 163.347 49.95 165.153 49.761L169.28 49.32V49.0995C169.28 48.4905 169.007 48.06 168.461 47.808C167.936 47.535 167.169 47.3985 166.161 47.3985C165.363 47.3985 164.586 47.4825 163.83 47.6505C163.074 47.8185 162.392 48.0285 161.783 48.2805C161.51 48.0915 161.279 47.808 161.09 47.43C160.901 47.031 160.806 46.6215 160.806 46.2015C160.806 45.6555 160.932 45.225 161.184 44.91C161.457 44.574 161.867 44.2905 162.413 44.0595C163.022 43.8285 163.736 43.6605 164.555 43.5555C165.395 43.4505 166.182 43.398 166.917 43.398Z" fill="white"/>
<path d="M187.454 49.4775C187.454 48.8265 187.265 48.354 186.887 48.06C186.53 47.745 186.036 47.5875 185.406 47.5875C184.986 47.5875 184.566 47.64 184.146 47.745C183.747 47.85 183.401 48.0075 183.107 48.2175V59.148C182.897 59.211 182.561 59.274 182.099 59.337C181.658 59.4 181.196 59.4315 180.713 59.4315C180.251 59.4315 179.831 59.4 179.453 59.337C179.096 59.274 178.791 59.148 178.539 58.959C178.287 58.77 178.088 58.518 177.941 58.203C177.815 57.867 177.752 57.4365 177.752 56.9115V47.4615C177.752 46.8945 177.867 46.4325 178.098 46.0755C178.35 45.7185 178.686 45.393 179.106 45.099C179.82 44.595 180.713 44.1855 181.784 43.8705C182.876 43.5555 184.083 43.398 185.406 43.398C187.779 43.398 189.606 43.923 190.887 44.973C192.168 46.002 192.809 47.4405 192.809 49.2885V59.148C192.599 59.211 192.263 59.274 191.801 59.337C191.36 59.4 190.898 59.4315 190.415 59.4315C189.953 59.4315 189.533 59.4 189.155 59.337C188.798 59.274 188.493 59.148 188.241 58.959C187.989 58.77 187.79 58.518 187.643 58.203C187.517 57.867 187.454 57.4365 187.454 56.9115V49.4775Z" fill="white"/>
<path d="M401.353 28.536H404.185V45H401.353V28.536ZM412.232 38.184C413.16 38.184 414.232 38.336 415.448 38.64V37.488C415.448 36.672 415.28 36.072 414.944 35.688C414.624 35.288 414.088 35.088 413.336 35.088C412.6 35.088 412.032 35.24 411.632 35.544C411.232 35.832 411.032 36.248 411.032 36.792H407.936C407.936 35.464 408.4 34.504 409.328 33.912C410.272 33.32 411.584 33.024 413.264 33.024C415.664 33.024 417.216 33.864 417.92 35.544C418.16 36.12 418.28 36.8 418.28 37.584V45H415.808L415.592 43.44C414.84 44.704 413.688 45.336 412.136 45.336C410.632 45.336 409.464 44.968 408.632 44.232C407.864 43.528 407.48 42.64 407.48 41.568C407.48 40.48 407.904 39.648 408.752 39.072C409.6 38.48 410.76 38.184 412.232 38.184ZM415.448 40.44C414.504 40.184 413.624 40.056 412.808 40.056C411.272 40.056 410.504 40.568 410.504 41.592C410.504 42.024 410.68 42.4 411.032 42.72C411.384 43.024 411.944 43.176 412.712 43.176C413.496 43.176 414.136 42.92 414.632 42.408C415.144 41.88 415.416 41.224 415.448 40.44ZM424.942 35.352C425.71 33.8 426.942 33.024 428.638 33.024C430.078 33.024 431.158 33.496 431.878 34.44C432.614 35.384 432.982 36.632 432.982 38.184V45H430.15V38.184C430.15 37.32 429.942 36.672 429.526 36.24C429.11 35.792 428.526 35.568 427.774 35.568C427.022 35.568 426.374 35.904 425.83 36.576C425.302 37.248 425.022 38.256 424.99 39.6V45H422.158V33.336H424.63L424.942 35.352ZM437.869 40.224C436.925 39.424 436.453 38.424 436.453 37.224C436.453 35.96 436.949 34.936 437.941 34.152C438.901 33.4 439.997 33.024 441.229 33.024C442.477 33.024 443.517 33.256 444.349 33.72C444.445 32.808 444.837 32.072 445.525 31.512C446.197 30.952 446.989 30.672 447.901 30.672L447.757 33.384C446.381 33.384 445.669 33.84 445.621 34.752C446.213 35.488 446.509 36.24 446.509 37.008C446.509 37.776 446.373 38.424 446.101 38.952C445.829 39.464 445.461 39.896 444.997 40.248C444.037 41.016 442.869 41.4 441.493 41.4C440.709 41.4 439.997 41.28 439.357 41.04C438.717 41.232 438.397 41.616 438.397 42.192C438.397 42.912 439.005 43.272 440.221 43.272H444.133C446.789 43.272 448.117 44.2 448.117 46.056C448.117 46.68 447.957 47.288 447.637 47.88C447.333 48.488 446.885 49.024 446.293 49.488C444.981 50.512 443.333 51.024 441.349 51.024C439.429 51.024 437.869 50.632 436.669 49.848C435.549 49.096 434.989 48.176 434.989 47.088C434.989 46.368 435.205 45.792 435.637 45.36C436.085 44.944 436.669 44.68 437.389 44.568C436.445 43.992 435.973 43.28 435.973 42.432C435.973 41.872 436.149 41.408 436.501 41.04C436.853 40.656 437.309 40.384 437.869 40.224ZM440.029 45.264C438.525 45.328 437.773 45.896 437.773 46.968C437.773 47.512 438.085 47.944 438.709 48.264C439.349 48.6 440.101 48.768 440.965 48.768C441.829 48.768 442.501 48.696 442.981 48.552C443.477 48.408 443.893 48.216 444.229 47.976C444.949 47.496 445.309 46.92 445.309 46.248C445.309 45.96 445.205 45.72 444.997 45.528C444.805 45.352 444.517 45.264 444.133 45.264H440.029ZM443.701 37.2C443.701 36.544 443.517 36.016 443.149 35.616C442.797 35.2 442.253 34.992 441.517 34.992C440.781 34.992 440.221 35.2 439.837 35.616C439.453 36.016 439.261 36.544 439.261 37.2C439.261 37.84 439.453 38.368 439.837 38.784C440.221 39.2 440.781 39.408 441.517 39.408C442.253 39.408 442.797 39.2 443.149 38.784C443.517 38.368 443.701 37.84 443.701 37.2ZM458.332 42.888C457.596 44.44 456.412 45.216 454.78 45.216C452.716 45.216 451.356 44.408 450.7 42.792C450.46 42.232 450.34 41.552 450.34 40.752V33.312H453.172V40.464C453.172 41.232 453.356 41.808 453.724 42.192C454.092 42.56 454.54 42.744 455.068 42.744C455.612 42.744 456.068 42.672 456.436 42.528C456.804 42.368 457.124 42.136 457.396 41.832C457.988 41.144 458.3 40.224 458.332 39.072V33.312H461.164V45H458.332V42.888ZM469.217 38.184C470.145 38.184 471.217 38.336 472.433 38.64V37.488C472.433 36.672 472.265 36.072 471.929 35.688C471.609 35.288 471.073 35.088 470.321 35.088C469.585 35.088 469.017 35.24 468.617 35.544C468.217 35.832 468.017 36.248 468.017 36.792H464.921C464.921 35.464 465.385 34.504 466.313 33.912C467.257 33.32 468.569 33.024 470.249 33.024C472.649 33.024 474.201 33.864 474.905 35.544C475.145 36.12 475.265 36.8 475.265 37.584V45H472.793L472.577 43.44C471.825 44.704 470.673 45.336 469.121 45.336C467.617 45.336 466.449 44.968 465.617 44.232C464.849 43.528 464.465 42.64 464.465 41.568C464.465 40.48 464.889 39.648 465.737 39.072C466.585 38.48 467.745 38.184 469.217 38.184ZM472.433 40.44C471.489 40.184 470.609 40.056 469.793 40.056C468.257 40.056 467.489 40.568 467.489 41.592C467.489 42.024 467.665 42.4 468.017 42.72C468.369 43.024 468.929 43.176 469.697 43.176C470.481 43.176 471.121 42.92 471.617 42.408C472.129 41.88 472.401 41.224 472.433 40.44ZM480.15 40.224C479.206 39.424 478.734 38.424 478.734 37.224C478.734 35.96 479.23 34.936 480.222 34.152C481.182 33.4 482.278 33.024 483.51 33.024C484.758 33.024 485.798 33.256 486.63 33.72C486.726 32.808 487.118 32.072 487.806 31.512C488.478 30.952 489.27 30.672 490.182 30.672L490.038 33.384C488.662 33.384 487.95 33.84 487.902 34.752C488.494 35.488 488.79 36.24 488.79 37.008C488.79 37.776 488.654 38.424 488.382 38.952C488.11 39.464 487.742 39.896 487.278 40.248C486.318 41.016 485.15 41.4 483.774 41.4C482.99 41.4 482.278 41.28 481.638 41.04C480.998 41.232 480.678 41.616 480.678 42.192C480.678 42.912 481.286 43.272 482.502 43.272H486.414C489.07 43.272 490.398 44.2 490.398 46.056C490.398 46.68 490.238 47.288 489.918 47.88C489.614 48.488 489.166 49.024 488.574 49.488C487.262 50.512 485.614 51.024 483.63 51.024C481.71 51.024 480.15 50.632 478.95 49.848C477.83 49.096 477.27 48.176 477.27 47.088C477.27 46.368 477.486 45.792 477.918 45.36C478.366 44.944 478.95 44.68 479.67 44.568C478.726 43.992 478.254 43.28 478.254 42.432C478.254 41.872 478.43 41.408 478.782 41.04C479.134 40.656 479.59 40.384 480.15 40.224ZM482.31 45.264C480.806 45.328 480.054 45.896 480.054 46.968C480.054 47.512 480.366 47.944 480.99 48.264C481.63 48.6 482.382 48.768 483.246 48.768C484.11 48.768 484.782 48.696 485.262 48.552C485.758 48.408 486.174 48.216 486.51 47.976C487.23 47.496 487.59 46.92 487.59 46.248C487.59 45.96 487.486 45.72 487.278 45.528C487.086 45.352 486.798 45.264 486.414 45.264H482.31ZM485.982 37.2C485.982 36.544 485.798 36.016 485.43 35.616C485.078 35.2 484.534 34.992 483.798 34.992C483.062 34.992 482.502 35.2 482.118 35.616C481.734 36.016 481.542 36.544 481.542 37.2C481.542 37.84 481.734 38.368 482.118 38.784C482.502 39.2 483.062 39.408 483.798 39.408C484.534 39.408 485.078 39.2 485.43 38.784C485.798 38.368 485.982 37.84 485.982 37.2ZM500.997 34.728C501.397 35.24 501.693 35.832 501.885 36.504C502.093 37.176 502.197 37.792 502.197 38.352C502.197 38.912 502.165 39.416 502.101 39.864H494.565C494.597 40.808 494.829 41.576 495.261 42.168C495.693 42.76 496.349 43.056 497.229 43.056C498.397 43.056 499.093 42.544 499.317 41.52H502.173C501.981 42.688 501.445 43.608 500.565 44.28C499.653 44.984 498.541 45.336 497.229 45.336C495.693 45.336 494.405 44.776 493.365 43.656C492.293 42.488 491.757 40.992 491.757 39.168C491.757 37.296 492.293 35.792 493.365 34.656C494.389 33.568 495.677 33.024 497.229 33.024C498.845 33.024 500.101 33.592 500.997 34.728ZM497.253 35.28C496.453 35.28 495.829 35.544 495.381 36.072C494.933 36.584 494.669 37.248 494.589 38.064H499.557C499.557 36.8 499.157 35.952 498.357 35.52C498.053 35.36 497.685 35.28 497.253 35.28ZM512.19 33.336L514.542 41.664L516.774 33.984H519.342L521.574 41.688L523.95 33.336H526.782L522.942 45H520.158L517.998 38.016L515.886 45H513.078L509.214 33.336H512.19ZM531.927 35.232C532.727 33.76 533.895 33.024 535.431 33.024C536.967 33.024 538.095 33.496 538.815 34.44C539.551 35.384 539.919 36.632 539.919 38.184V45H537.087V38.184C537.087 37.32 536.879 36.672 536.463 36.24C536.047 35.792 535.463 35.568 534.711 35.568C533.959 35.568 533.311 35.904 532.767 36.576C532.239 37.248 531.959 38.256 531.927 39.6V45H529.095V28.536H531.927V35.232ZM544.038 33.312H546.87V45H544.038V33.312ZM543.702 29.568C543.702 29.056 543.854 28.656 544.158 28.368C544.462 28.064 544.894 27.912 545.454 27.912C545.998 27.912 546.422 28.064 546.726 28.368C547.046 28.656 547.206 29.056 547.206 29.568C547.206 30.08 547.046 30.488 546.726 30.792C546.422 31.08 545.998 31.224 545.454 31.224C544.894 31.224 544.462 31.08 544.158 30.792C543.854 30.488 543.702 30.08 543.702 29.568ZM551.423 28.536H554.255V45H551.423V28.536ZM566.598 34.728C566.998 35.24 567.294 35.832 567.486 36.504C567.694 37.176 567.798 37.792 567.798 38.352C567.798 38.912 567.766 39.416 567.702 39.864H560.166C560.198 40.808 560.43 41.576 560.862 42.168C561.294 42.76 561.95 43.056 562.83 43.056C563.998 43.056 564.694 42.544 564.918 41.52H567.774C567.582 42.688 567.046 43.608 566.166 44.28C565.254 44.984 564.142 45.336 562.83 45.336C561.294 45.336 560.006 44.776 558.966 43.656C557.894 42.488 557.358 40.992 557.358 39.168C557.358 37.296 557.894 35.792 558.966 34.656C559.99 33.568 561.278 33.024 562.83 33.024C564.446 33.024 565.702 33.592 566.598 34.728ZM562.854 35.28C562.054 35.28 561.43 35.544 560.982 36.072C560.534 36.584 560.27 37.248 560.19 38.064H565.158C565.158 36.8 564.758 35.952 563.958 35.52C563.654 35.36 563.286 35.28 562.854 35.28ZM578.199 33.336L581.007 41.736L583.455 33.336H586.335L581.871 47.112C581.407 48.504 580.839 49.504 580.167 50.112C579.511 50.72 578.671 51.024 577.647 51.024C576.607 51.024 575.567 50.768 574.527 50.256V47.76C575.359 48.288 576.199 48.552 577.047 48.552C577.607 48.552 578.063 48.328 578.415 47.88C578.783 47.432 579.079 46.848 579.303 46.128L579.663 45L574.983 33.336H578.199ZM593.187 33.024C593.971 33.024 594.707 33.152 595.395 33.408C596.083 33.648 596.675 34.024 597.171 34.536C598.275 35.656 598.827 37.208 598.827 39.192C598.827 41.144 598.275 42.68 597.171 43.8C596.179 44.824 594.851 45.336 593.187 45.336C591.523 45.336 590.179 44.824 589.155 43.8C588.051 42.696 587.499 41.16 587.499 39.192C587.499 37.192 588.051 35.64 589.155 34.536C590.163 33.528 591.507 33.024 593.187 33.024ZM595.995 39.168C595.995 37.936 595.755 37.016 595.275 36.408C594.795 35.784 594.123 35.472 593.259 35.472C592.411 35.472 591.715 35.784 591.171 36.408C590.627 37.016 590.355 37.936 590.355 39.168C590.355 40.4 590.595 41.328 591.075 41.952C591.571 42.56 592.243 42.864 593.091 42.864C593.939 42.864 594.635 42.56 595.179 41.952C595.723 41.328 595.995 40.4 595.995 39.168ZM609.699 42.888C608.963 44.44 607.779 45.216 606.147 45.216C604.083 45.216 602.723 44.408 602.067 42.792C601.827 42.232 601.707 41.552 601.707 40.752V33.312H604.539V40.464C604.539 41.232 604.723 41.808 605.091 42.192C605.459 42.56 605.907 42.744 606.435 42.744C606.979 42.744 607.435 42.672 607.803 42.528C608.171 42.368 608.491 42.136 608.763 41.832C609.355 41.144 609.667 40.224 609.699 39.072V33.312H612.531V45H609.699V42.888ZM632.356 34.704C633.348 35.824 633.844 37.296 633.844 39.12C633.844 40.944 633.324 42.448 632.284 43.632C631.276 44.768 630.02 45.336 628.516 45.336C627.796 45.336 627.132 45.144 626.524 44.76C625.932 44.376 625.46 43.784 625.108 42.984L624.412 45H622.564V28.536H625.396V34.8C626.132 33.616 627.228 33.024 628.684 33.024C630.156 33.024 631.38 33.584 632.356 34.704ZM625.396 38.448V39.984C625.428 40.8 625.724 41.472 626.284 42C626.812 42.512 627.452 42.768 628.204 42.768C628.972 42.768 629.628 42.44 630.172 41.784C630.716 41.112 630.988 40.232 630.988 39.144C630.988 38.056 630.716 37.192 630.172 36.552C629.644 35.896 628.98 35.568 628.18 35.568C627.38 35.568 626.716 35.832 626.188 36.36C625.66 36.888 625.396 37.584 625.396 38.448ZM639.888 35.64C640.592 33.96 641.648 33.12 643.056 33.12C643.328 33.12 643.672 33.176 644.088 33.288L644.04 36.12C643.592 36.024 643.152 35.976 642.72 35.976C640.832 35.976 639.888 37.28 639.888 39.888V45H637.056V33.312H639.888V35.64ZM651.375 33.024C652.159 33.024 652.895 33.152 653.583 33.408C654.271 33.648 654.863 34.024 655.359 34.536C656.463 35.656 657.015 37.208 657.015 39.192C657.015 41.144 656.463 42.68 655.359 43.8C654.367 44.824 653.039 45.336 651.375 45.336C649.711 45.336 648.367 44.824 647.343 43.8C646.239 42.696 645.687 41.16 645.687 39.192C645.687 37.192 646.239 35.64 647.343 34.536C648.351 33.528 649.695 33.024 651.375 33.024ZM654.183 39.168C654.183 37.936 653.943 37.016 653.463 36.408C652.983 35.784 652.311 35.472 651.447 35.472C650.599 35.472 649.903 35.784 649.359 36.408C648.815 37.016 648.543 37.936 648.543 39.168C648.543 40.4 648.783 41.328 649.263 41.952C649.759 42.56 650.431 42.864 651.279 42.864C652.127 42.864 652.823 42.56 653.367 41.952C653.911 41.328 654.183 40.4 654.183 39.168ZM661.166 33.336L663.518 41.664L665.75 33.984H668.318L670.55 41.688L672.926 33.336H675.758L671.918 45H669.134L666.974 38.016L664.862 45H662.054L658.19 33.336H661.166ZM679.656 41.448C679.688 42.552 680.496 43.104 682.08 43.104C682.688 43.104 683.184 42.976 683.568 42.72C683.968 42.448 684.168 42.136 684.168 41.784C684.168 41.432 684.048 41.16 683.808 40.968C683.568 40.776 683.192 40.6 682.68 40.44L680.136 39.528C678.248 38.872 677.304 37.8 677.304 36.312C677.304 35.32 677.744 34.528 678.624 33.936C679.52 33.328 680.712 33.024 682.2 33.024C683.704 33.024 684.856 33.352 685.656 34.008C686.472 34.664 686.896 35.488 686.928 36.48H684.264C684.232 36.096 684.048 35.792 683.712 35.568C683.376 35.344 682.896 35.232 682.272 35.232C681.648 35.232 681.16 35.36 680.808 35.616C680.472 35.856 680.304 36.136 680.304 36.456C680.304 37.016 680.776 37.432 681.72 37.704L684.48 38.736C685.392 39.04 686.088 39.432 686.568 39.912C687.064 40.376 687.312 40.984 687.312 41.736C687.312 42.696 686.856 43.528 685.944 44.232C685 44.968 683.752 45.336 682.2 45.336C680.648 45.336 679.4 45 678.456 44.328C677.512 43.64 677.032 42.68 677.016 41.448H679.656ZM698.614 34.728C699.014 35.24 699.31 35.832 699.502 36.504C699.71 37.176 699.814 37.792 699.814 38.352C699.814 38.912 699.782 39.416 699.718 39.864H692.182C692.214 40.808 692.446 41.576 692.878 42.168C693.31 42.76 693.966 43.056 694.846 43.056C696.014 43.056 696.71 42.544 696.934 41.52H699.79C699.598 42.688 699.062 43.608 698.182 44.28C697.27 44.984 696.158 45.336 694.846 45.336C693.31 45.336 692.022 44.776 690.982 43.656C689.91 42.488 689.374 40.992 689.374 39.168C689.374 37.296 689.91 35.792 690.982 34.656C692.006 33.568 693.294 33.024 694.846 33.024C696.462 33.024 697.718 33.592 698.614 34.728ZM694.87 35.28C694.07 35.28 693.446 35.544 692.998 36.072C692.55 36.584 692.286 37.248 692.206 38.064H697.174C697.174 36.8 696.774 35.952 695.974 35.52C695.67 35.36 695.302 35.28 694.87 35.28ZM703.267 45.216C702.691 45.216 702.219 45.04 701.851 44.688C701.483 44.336 701.299 43.888 701.299 43.344C701.299 42.8 701.483 42.344 701.851 41.976C702.219 41.608 702.691 41.424 703.267 41.424C703.843 41.424 704.323 41.608 704.707 41.976C705.091 42.344 705.283 42.8 705.283 43.344C705.283 43.888 705.091 44.336 704.707 44.688C704.323 45.04 703.843 45.216 703.267 45.216Z" fill="white"/>
<path d="M319 27C319 24.7909 320.791 23 323 23H391C393.209 23 395 24.7909 395 27V48C395 50.2091 393.209 52 391 52H323C320.791 52 319 50.2091 319 48V27Z" fill="#CFECF5" fill-opacity="0.4"/>
<path d="M328.016 35.352C328.784 33.8 330.016 33.024 331.712 33.024C333.152 33.024 334.232 33.496 334.952 34.44C335.688 35.384 336.056 36.632 336.056 38.184V45H333.224V38.184C333.224 37.32 333.016 36.672 332.6 36.24C332.184 35.792 331.6 35.568 330.848 35.568C330.096 35.568 329.448 35.904 328.904 36.576C328.376 37.248 328.096 38.256 328.064 39.6V45H325.232V33.336H327.704L328.016 35.352ZM347.687 42.888C346.951 44.44 345.767 45.216 344.135 45.216C342.071 45.216 340.711 44.408 340.055 42.792C339.815 42.232 339.695 41.552 339.695 40.752V33.312H342.527V40.464C342.527 41.232 342.711 41.808 343.079 42.192C343.447 42.56 343.895 42.744 344.423 42.744C344.967 42.744 345.423 42.672 345.791 42.528C346.159 42.368 346.479 42.136 346.751 41.832C347.343 41.144 347.655 40.224 347.687 39.072V33.312H350.519V45H347.687V42.888ZM362.868 34.728C363.268 35.24 363.564 35.832 363.756 36.504C363.964 37.176 364.068 37.792 364.068 38.352C364.068 38.912 364.036 39.416 363.972 39.864H356.436C356.468 40.808 356.7 41.576 357.132 42.168C357.564 42.76 358.22 43.056 359.1 43.056C360.268 43.056 360.964 42.544 361.188 41.52H364.044C363.852 42.688 363.316 43.608 362.436 44.28C361.524 44.984 360.412 45.336 359.1 45.336C357.564 45.336 356.276 44.776 355.236 43.656C354.164 42.488 353.628 40.992 353.628 39.168C353.628 37.296 354.164 35.792 355.236 34.656C356.26 33.568 357.548 33.024 359.1 33.024C360.716 33.024 361.972 33.592 362.868 34.728ZM359.124 35.28C358.324 35.28 357.7 35.544 357.252 36.072C356.804 36.584 356.54 37.248 356.46 38.064H361.428C361.428 36.8 361.028 35.952 360.228 35.52C359.924 35.36 359.556 35.28 359.124 35.28ZM368.529 33.336L371.193 42.192L373.881 33.336H377.145L372.801 45H369.609L365.265 33.336H368.529ZM383.988 33.024C384.772 33.024 385.508 33.152 386.196 33.408C386.884 33.648 387.476 34.024 387.972 34.536C389.076 35.656 389.628 37.208 389.628 39.192C389.628 41.144 389.076 42.68 387.972 43.8C386.98 44.824 385.652 45.336 383.988 45.336C382.324 45.336 380.98 44.824 379.956 43.8C378.852 42.696 378.3 41.16 378.3 39.192C378.3 37.192 378.852 35.64 379.956 34.536C380.964 33.528 382.308 33.024 383.988 33.024ZM386.796 39.168C386.796 37.936 386.556 37.016 386.076 36.408C385.596 35.784 384.924 35.472 384.06 35.472C383.212 35.472 382.516 35.784 381.972 36.408C381.428 37.016 381.156 37.936 381.156 39.168C381.156 40.4 381.396 41.328 381.876 41.952C382.372 42.56 383.044 42.864 383.892 42.864C384.74 42.864 385.436 42.56 385.98 41.952C386.524 41.328 386.796 40.4 386.796 39.168Z" fill="white"/>
<path d="M238.127 42.528H244.535V45H235.295V29.424H238.127V42.528ZM255.04 34.728C255.44 35.24 255.736 35.832 255.928 36.504C256.136 37.176 256.24 37.792 256.24 38.352C256.24 38.912 256.208 39.416 256.144 39.864H248.608C248.64 40.808 248.872 41.576 249.304 42.168C249.736 42.76 250.392 43.056 251.272 43.056C252.44 43.056 253.136 42.544 253.36 41.52H256.216C256.024 42.688 255.488 43.608 254.608 44.28C253.696 44.984 252.584 45.336 251.272 45.336C249.736 45.336 248.448 44.776 247.408 43.656C246.336 42.488 245.8 40.992 245.8 39.168C245.8 37.296 246.336 35.792 247.408 34.656C248.432 33.568 249.72 33.024 251.272 33.024C252.888 33.024 254.144 33.592 255.04 34.728ZM251.296 35.28C250.496 35.28 249.872 35.544 249.424 36.072C248.976 36.584 248.712 37.248 248.632 38.064H253.6C253.6 36.8 253.2 35.952 252.4 35.52C252.096 35.36 251.728 35.28 251.296 35.28ZM263.22 38.184C264.148 38.184 265.22 38.336 266.436 38.64V37.488C266.436 36.672 266.268 36.072 265.932 35.688C265.612 35.288 265.076 35.088 264.324 35.088C263.588 35.088 263.02 35.24 262.62 35.544C262.22 35.832 262.02 36.248 262.02 36.792H258.924C258.924 35.464 259.388 34.504 260.316 33.912C261.26 33.32 262.572 33.024 264.252 33.024C266.652 33.024 268.204 33.864 268.908 35.544C269.148 36.12 269.268 36.8 269.268 37.584V45H266.796L266.58 43.44C265.828 44.704 264.676 45.336 263.124 45.336C261.62 45.336 260.452 44.968 259.62 44.232C258.852 43.528 258.468 42.64 258.468 41.568C258.468 40.48 258.892 39.648 259.74 39.072C260.588 38.48 261.748 38.184 263.22 38.184ZM266.436 40.44C265.492 40.184 264.612 40.056 263.796 40.056C262.26 40.056 261.492 40.568 261.492 41.592C261.492 42.024 261.668 42.4 262.02 42.72C262.372 43.024 262.932 43.176 263.7 43.176C264.484 43.176 265.124 42.92 265.62 42.408C266.132 41.88 266.404 41.224 266.436 40.44ZM275.978 35.64C276.682 33.96 277.738 33.12 279.146 33.12C279.418 33.12 279.762 33.176 280.178 33.288L280.13 36.12C279.682 36.024 279.242 35.976 278.81 35.976C276.922 35.976 275.978 37.28 275.978 39.888V45H273.146V33.312H275.978V35.64ZM285.664 35.352C286.432 33.8 287.664 33.024 289.36 33.024C290.8 33.024 291.88 33.496 292.6 34.44C293.336 35.384 293.704 36.632 293.704 38.184V45H290.872V38.184C290.872 37.32 290.664 36.672 290.248 36.24C289.832 35.792 289.248 35.568 288.496 35.568C287.744 35.568 287.096 35.904 286.552 36.576C286.024 37.248 285.744 38.256 285.712 39.6V45H282.88V33.336H285.352L285.664 35.352ZM307.244 38.184C308.172 38.184 309.244 38.336 310.46 38.64V37.488C310.46 36.672 310.292 36.072 309.956 35.688C309.636 35.288 309.1 35.088 308.348 35.088C307.612 35.088 307.044 35.24 306.644 35.544C306.244 35.832 306.044 36.248 306.044 36.792H302.948C302.948 35.464 303.412 34.504 304.34 33.912C305.284 33.32 306.596 33.024 308.276 33.024C310.676 33.024 312.228 33.864 312.932 35.544C313.172 36.12 313.292 36.8 313.292 37.584V45H310.82L310.604 43.44C309.852 44.704 308.7 45.336 307.148 45.336C305.644 45.336 304.476 44.968 303.644 44.232C302.876 43.528 302.492 42.64 302.492 41.568C302.492 40.48 302.916 39.648 303.764 39.072C304.612 38.48 305.772 38.184 307.244 38.184ZM310.46 40.44C309.516 40.184 308.636 40.056 307.82 40.056C306.284 40.056 305.516 40.568 305.516 41.592C305.516 42.024 305.692 42.4 306.044 42.72C306.396 43.024 306.956 43.176 307.724 43.176C308.508 43.176 309.148 42.92 309.644 42.408C310.156 41.88 310.428 41.224 310.46 40.44Z" fill="white"/>
<path d="M908.618 83.5956C902.514 93.0497 900.235 102.257 905.3 105.533C910.364 108.809 917.981 102.697 924.086 93.2432C930.19 83.7891 935.048 73.1607 929.983 69.8848C924.925 66.6089 914.723 74.1482 908.618 83.5956Z" fill="#323C46"/>
<path d="M914.523 91.8687C908.419 101.323 906.14 110.53 911.204 113.806C916.269 117.082 923.886 110.97 929.99 101.516C936.094 92.0622 940.952 81.4339 935.887 78.158C930.823 74.8821 920.62 82.4147 914.523 91.8687Z" fill="#335267"/>
<path d="M844.578 90.7679C841.466 95.4315 831.97 107.001 830.137 116.782C828.784 123.994 831.557 130.793 834.136 130.793C835.855 130.793 834.136 125.455 838.654 121.565C838.427 126.629 838.6 139.686 845.464 148.14C854.127 158.815 860.125 160.149 862.124 159.482C864.123 158.815 866.789 153.477 866.789 153.477L866.742 153.143C870.348 154.224 874.166 154.811 878.118 154.811C882.323 154.811 886.374 154.151 890.179 152.937C890.619 153.764 893.405 158.868 895.244 159.482C897.243 160.149 903.241 158.815 911.904 148.14C915.509 143.696 922.766 130.793 922.766 130.793C921.62 129.265 920.261 124.908 919.308 121.452C922.22 125.535 925.339 129.305 929.43 130.125C932.762 130.793 935.894 130.185 935.428 124.121C934.788 115.834 920.647 97.7934 910.771 89.4268C902.108 82.0877 910.771 82.7549 910.105 60.0705C909.605 43.1305 893.433 25.5 876.5 25.5C859.567 25.5 828.591 53.9056 842.132 64.0736C844.798 66.0752 847.404 68.0901 848.13 72.0799C849.463 79.419 847.69 86.1109 844.578 90.7679Z" fill="#3F7494"/>
<path d="M893.445 74.7487C891.652 86.4312 895.444 125.455 862.791 124.121C852.128 123.687 843.465 115.461 843.465 104.772C843.465 94.0838 854.243 88.1714 849.463 74.0815C847.45 67.0226 837.528 62.5124 840.133 61.4049C847.104 58.4425 862.513 21.0081 875.914 23.45C883.245 24.7844 901.641 32.5356 904.107 46.7267C906.773 62.0721 894.778 66.0752 893.445 74.7487Z" fill="white"/>
<path d="M905.44 50.3962C905.44 62.3723 898.076 70.7455 886.114 70.7455C866.25 70.7455 865.957 50.3962 857.171 49.2214C857.171 37.2454 863.057 20.3593 874.786 22.7078C888.114 25.3766 905.44 36.0516 905.44 50.3962Z" fill="#CFECF5"/>
<path d="M855.46 54.7329C855.46 57.1281 850.229 63.4064 842.132 63.4064C807.48 50.0626 784.156 56.7345 783.489 55.4001C781.092 50.5991 811.293 47.0305 818.807 46.8786C826.957 46.8786 836.095 46.6666 842.799 48.7282C845.204 49.4688 853.561 45.5324 856.127 46.7266C858.692 47.9209 855.46 54.2325 855.46 54.7329Z" fill="#E07A15"/>
<path d="M804.961 18.1176C789.114 23.5685 774.051 36.285 776.05 46.2929C777.203 52.0574 810.905 40.275 839.893 48.7283C843.691 49.8358 850.129 50.7298 856.793 49.3955C848.093 56.8357 829.057 49.5668 814.81 48.7283C800.563 47.8897 780.791 49.9959 783.49 55.4002C784.156 56.7346 807.48 50.0627 842.132 63.4065C846.737 63.4065 852.128 62.7393 855.46 56.0674C858.592 49.7891 860.125 42.7236 874.786 22.7079C848.796 13.3672 825.819 10.9453 804.961 18.1176Z" fill="#F8C06D"/>
<path d="M804.75 45.9122C791.422 47.2465 774.16 51.2169 774.16 46.0595C774.16 40.9021 778.158 26.711 807.48 17.3703C798.817 26.0438 792.088 35.2371 804.75 45.9122Z" fill="#AB5930"/>
<path d="M878.011 53.959C882.059 53.959 885.341 50.6732 885.341 46.6199C885.341 42.5666 882.059 39.2808 878.011 39.2808C873.963 39.2808 870.681 42.5666 870.681 46.6199C870.681 50.6732 873.963 53.959 878.011 53.959Z" fill="#161616"/>
<path d="M875.012 47.9543C876.484 47.9543 877.678 46.7595 877.678 45.2856C877.678 43.8117 876.484 42.6168 875.012 42.6168C873.54 42.6168 872.347 43.8117 872.347 45.2856C872.347 46.7595 873.54 47.9543 875.012 47.9543Z" fill="white"/>
<path d="M64 18C66.2091 18 68 16.2091 68 14C68 11.7909 66.2091 10 64 10C61.7909 10 60 11.7909 60 14C60 16.2091 61.7909 18 64 18Z" fill="#3EA39A"/>
<path d="M137 10C141.971 10 146 5.97054 146 0.999983C146 -3.97058 141.971 -8 137 -8C132.029 -8 128 -3.97058 128 0.999983C128 5.97054 132.029 10 137 10Z" fill="#3EA39A"/>
<path d="M309.5 11C310.881 11 312 9.88071 312 8.5C312 7.11928 310.881 6 309.5 6C308.119 6 307 7.11928 307 8.5C307 9.88071 308.119 11 309.5 11Z" fill="#3EA39A"/>
<path d="M80 23C81.1046 23 82 22.1046 82 21C82 19.8954 81.1046 19 80 19C78.8954 19 78 19.8954 78 21C78 22.1046 78.8954 23 80 23Z" fill="#3EA39A"/>
<path d="M237.848 61.616C239.427 61.616 240.701 62.0853 241.672 63.024C242.653 63.9627 243.144 65.2267 243.144 66.816C243.144 68.3947 242.653 69.6533 241.672 70.592C240.701 71.5307 239.427 72 237.848 72H234.472V61.616H237.848ZM236.376 70.288H237.848C238.829 70.288 239.624 69.9573 240.232 69.296C240.808 68.656 241.096 67.8293 241.096 66.816C241.096 65.7813 240.808 64.944 240.232 64.304C239.635 63.6533 238.84 63.328 237.848 63.328H236.376V70.288ZM248.513 64.016C249.035 64.016 249.526 64.1013 249.985 64.272C250.443 64.432 250.838 64.6827 251.169 65.024C251.905 65.7707 252.273 66.8053 252.273 68.128C252.273 69.4293 251.905 70.4533 251.169 71.2C250.507 71.8827 249.622 72.224 248.513 72.224C247.403 72.224 246.507 71.8827 245.825 71.2C245.089 70.464 244.721 69.44 244.721 68.128C244.721 66.7947 245.089 65.76 245.825 65.024C246.497 64.352 247.393 64.016 248.513 64.016ZM250.385 68.112C250.385 67.2907 250.225 66.6773 249.905 66.272C249.585 65.856 249.137 65.648 248.561 65.648C247.995 65.648 247.531 65.856 247.169 66.272C246.806 66.6773 246.625 67.2907 246.625 68.112C246.625 68.9333 246.785 69.552 247.105 69.968C247.435 70.3733 247.883 70.576 248.449 70.576C249.014 70.576 249.478 70.3733 249.841 69.968C250.203 69.552 250.385 68.9333 250.385 68.112ZM255.207 64.224L256.775 69.776L258.263 64.656H259.975L261.463 69.792L263.047 64.224H264.935L262.375 72H260.519L259.079 67.344L257.671 72H255.799L253.223 64.224H255.207ZM268.5 65.568C269.012 64.5333 269.834 64.016 270.964 64.016C271.924 64.016 272.644 64.3307 273.124 64.96C273.615 65.5893 273.86 66.4213 273.86 67.456V72H271.972V67.456C271.972 66.88 271.834 66.448 271.556 66.16C271.279 65.8613 270.89 65.712 270.388 65.712C269.887 65.712 269.455 65.936 269.092 66.384C268.74 66.832 268.554 67.504 268.532 68.4V72H266.644V64.224H268.292L268.5 65.568ZM276.613 61.024H278.501V72H276.613V61.024ZM284.528 64.016C285.051 64.016 285.542 64.1013 286 64.272C286.459 64.432 286.854 64.6827 287.184 65.024C287.92 65.7707 288.288 66.8053 288.288 68.128C288.288 69.4293 287.92 70.4533 287.184 71.2C286.523 71.8827 285.638 72.224 284.528 72.224C283.419 72.224 282.523 71.8827 281.84 71.2C281.104 70.464 280.736 69.44 280.736 68.128C280.736 66.7947 281.104 65.76 281.84 65.024C282.512 64.352 283.408 64.016 284.528 64.016ZM286.4 68.112C286.4 67.2907 286.24 66.6773 285.92 66.272C285.6 65.856 285.152 65.648 284.576 65.648C284.011 65.648 283.547 65.856 283.184 66.272C282.822 66.6773 282.64 67.2907 282.64 68.112C282.64 68.9333 282.8 69.552 283.12 69.968C283.451 70.3733 283.899 70.576 284.464 70.576C285.03 70.576 285.494 70.3733 285.856 69.968C286.219 69.552 286.4 68.9333 286.4 68.112ZM293.095 67.456C293.714 67.456 294.428 67.5573 295.239 67.76V66.992C295.239 66.448 295.127 66.048 294.903 65.792C294.69 65.5253 294.332 65.392 293.831 65.392C293.34 65.392 292.962 65.4933 292.695 65.696C292.428 65.888 292.295 66.1653 292.295 66.528H290.231C290.231 65.6427 290.54 65.0027 291.159 64.608C291.788 64.2133 292.663 64.016 293.783 64.016C295.383 64.016 296.418 64.576 296.887 65.696C297.047 66.08 297.127 66.5333 297.127 67.056V72H295.479L295.335 70.96C294.834 71.8027 294.066 72.224 293.031 72.224C292.028 72.224 291.25 71.9787 290.695 71.488C290.183 71.0187 289.927 70.4267 289.927 69.712C289.927 68.9867 290.21 68.432 290.775 68.048C291.34 67.6533 292.114 67.456 293.095 67.456ZM295.239 68.96C294.61 68.7893 294.023 68.704 293.479 68.704C292.455 68.704 291.943 69.0453 291.943 69.728C291.943 70.016 292.06 70.2667 292.295 70.48C292.53 70.6827 292.903 70.784 293.415 70.784C293.938 70.784 294.364 70.6133 294.695 70.272C295.036 69.92 295.218 69.4827 295.239 68.96ZM304.951 70.8C304.471 71.7493 303.735 72.224 302.743 72.224C301.751 72.224 300.919 71.8453 300.247 71.088C299.553 70.2987 299.207 69.296 299.207 68.08C299.207 66.864 299.537 65.8773 300.199 65.12C300.849 64.384 301.66 64.016 302.631 64.016C303.601 64.016 304.332 64.4053 304.823 65.184V61.024H306.727V72H305.175L304.951 70.8ZM302.983 65.712C302.449 65.712 302.001 65.9307 301.639 66.368C301.287 66.7947 301.111 67.3707 301.111 68.096C301.111 68.8213 301.292 69.408 301.655 69.856C302.017 70.2933 302.476 70.512 303.031 70.512C303.489 70.512 303.9 70.3307 304.263 69.968C304.636 69.5947 304.823 69.1253 304.823 68.56V67.552C304.801 66.9973 304.615 66.544 304.263 66.192C303.943 65.872 303.516 65.712 302.983 65.712ZM318.138 71.808C317.434 72.0853 316.879 72.224 316.474 72.224C316.068 72.224 315.711 72.176 315.402 72.08C315.103 71.984 314.836 71.84 314.602 71.648C314.111 71.2107 313.866 70.608 313.866 69.84V65.488H312.778V64.224H313.866V62.176H315.754V64.224H317.866V65.488H315.754V69.776C315.754 70.416 316.058 70.736 316.666 70.736C316.975 70.736 317.375 70.6507 317.866 70.48L318.138 71.808ZM321.954 65.488C322.487 64.5067 323.266 64.016 324.29 64.016C325.314 64.016 326.066 64.3307 326.546 64.96C327.037 65.5893 327.282 66.4213 327.282 67.456V72H325.394V67.456C325.394 66.88 325.255 66.448 324.978 66.16C324.701 65.8613 324.311 65.712 323.81 65.712C323.309 65.712 322.877 65.936 322.514 66.384C322.162 66.832 321.975 67.504 321.954 68.4V72H320.066V61.024H321.954V65.488ZM335.459 65.152C335.726 65.4933 335.923 65.888 336.051 66.336C336.19 66.784 336.259 67.1947 336.259 67.568C336.259 67.9413 336.238 68.2773 336.195 68.576H331.171C331.192 69.2053 331.347 69.7173 331.635 70.112C331.923 70.5067 332.36 70.704 332.947 70.704C333.726 70.704 334.19 70.3627 334.339 69.68H336.243C336.115 70.4587 335.758 71.072 335.171 71.52C334.563 71.9893 333.822 72.224 332.947 72.224C331.923 72.224 331.064 71.8507 330.371 71.104C329.656 70.3253 329.299 69.328 329.299 68.112C329.299 66.864 329.656 65.8613 330.371 65.104C331.054 64.3787 331.912 64.016 332.947 64.016C334.024 64.016 334.862 64.3947 335.459 65.152ZM332.963 65.52C332.43 65.52 332.014 65.696 331.715 66.048C331.416 66.3893 331.24 66.832 331.187 67.376H334.499C334.499 66.5333 334.232 65.968 333.699 65.68C333.496 65.5733 333.251 65.52 332.963 65.52ZM388.138 61.408C388.778 61.408 389.333 61.488 389.802 61.648C390.271 61.7973 390.677 62.0107 391.018 62.288C391.69 62.832 392.127 63.5947 392.33 64.576L390.314 64.944C390.143 64.4 389.877 63.9627 389.514 63.632C389.162 63.2907 388.719 63.12 388.186 63.12C387.461 63.12 386.874 63.424 386.426 64.032C385.946 64.6933 385.706 65.6107 385.706 66.784C385.706 67.9467 385.919 68.8587 386.346 69.52C386.773 70.1707 387.354 70.496 388.09 70.496C388.826 70.496 389.381 70.32 389.754 69.968C390.127 69.6053 390.314 69.1413 390.314 68.576H392.346C392.346 69.7387 391.973 70.64 391.226 71.28C390.49 71.9093 389.477 72.224 388.186 72.224C386.81 72.224 385.717 71.744 384.906 70.784C384.085 69.8027 383.674 68.4693 383.674 66.784C383.674 65.0773 384.095 63.744 384.938 62.784C385.749 61.8667 386.815 61.408 388.138 61.408ZM396.439 65.488C396.972 64.5067 397.751 64.016 398.775 64.016C399.799 64.016 400.551 64.3307 401.031 64.96C401.521 65.5893 401.767 66.4213 401.767 67.456V72H399.879V67.456C399.879 66.88 399.74 66.448 399.463 66.16C399.185 65.8613 398.796 65.712 398.295 65.712C397.793 65.712 397.361 65.936 396.999 66.384C396.647 66.832 396.46 67.504 396.439 68.4V72H394.551V61.024H396.439V65.488ZM406.407 65.76C406.877 64.64 407.581 64.08 408.519 64.08C408.701 64.08 408.93 64.1173 409.207 64.192L409.175 66.08C408.877 66.016 408.583 65.984 408.295 65.984C407.037 65.984 406.407 66.8533 406.407 68.592V72H404.519V64.208H406.407V65.76ZM414.232 64.016C414.754 64.016 415.245 64.1013 415.704 64.272C416.162 64.432 416.557 64.6827 416.888 65.024C417.624 65.7707 417.992 66.8053 417.992 68.128C417.992 69.4293 417.624 70.4533 416.888 71.2C416.226 71.8827 415.341 72.224 414.232 72.224C413.122 72.224 412.226 71.8827 411.544 71.2C410.808 70.464 410.44 69.44 410.44 68.128C410.44 66.7947 410.808 65.76 411.544 65.024C412.216 64.352 413.112 64.016 414.232 64.016ZM416.104 68.112C416.104 67.2907 415.944 66.6773 415.624 66.272C415.304 65.856 414.856 65.648 414.28 65.648C413.714 65.648 413.25 65.856 412.888 66.272C412.525 66.6773 412.344 67.2907 412.344 68.112C412.344 68.9333 412.504 69.552 412.824 69.968C413.154 70.3733 413.602 70.576 414.168 70.576C414.733 70.576 415.197 70.3733 415.56 69.968C415.922 69.552 416.104 68.9333 416.104 68.112ZM427.15 65.696C427.651 64.576 428.531 64.016 429.79 64.016C430.718 64.016 431.438 64.3307 431.95 64.96C432.441 65.5573 432.686 66.3893 432.686 67.456V72H430.782V67.456C430.782 66.88 430.643 66.448 430.366 66.16C430.089 65.8613 429.699 65.712 429.198 65.712C428.697 65.712 428.286 65.9307 427.966 66.368C427.646 66.8053 427.475 67.4667 427.454 68.352V72H425.566V67.456C425.566 66.88 425.427 66.448 425.15 66.16C424.873 65.8613 424.483 65.712 423.982 65.712C423.481 65.712 423.049 65.936 422.686 66.384C422.334 66.832 422.147 67.504 422.126 68.4V72H420.238V64.224H421.886L422.094 65.568C422.606 64.5333 423.427 64.016 424.558 64.016C425.209 64.016 425.747 64.1653 426.174 64.464C426.611 64.7627 426.937 65.1733 427.15 65.696ZM440.85 65.152C441.116 65.4933 441.314 65.888 441.442 66.336C441.58 66.784 441.65 67.1947 441.65 67.568C441.65 67.9413 441.628 68.2773 441.586 68.576H436.562C436.583 69.2053 436.738 69.7173 437.026 70.112C437.314 70.5067 437.751 70.704 438.338 70.704C439.116 70.704 439.58 70.3627 439.73 69.68H441.634C441.506 70.4587 441.148 71.072 440.562 71.52C439.954 71.9893 439.212 72.224 438.338 72.224C437.314 72.224 436.455 71.8507 435.762 71.104C435.047 70.3253 434.69 69.328 434.69 68.112C434.69 66.864 435.047 65.8613 435.762 65.104C436.444 64.3787 437.303 64.016 438.338 64.016C439.415 64.016 440.252 64.3947 440.85 65.152ZM438.354 65.52C437.82 65.52 437.404 65.696 437.106 66.048C436.807 66.3893 436.631 66.832 436.578 67.376H439.89C439.89 66.5333 439.623 65.968 439.09 65.68C438.887 65.5733 438.642 65.52 438.354 65.52ZM453.381 65.152C453.647 65.4933 453.845 65.888 453.973 66.336C454.111 66.784 454.181 67.1947 454.181 67.568C454.181 67.9413 454.159 68.2773 454.117 68.576H449.093C449.114 69.2053 449.269 69.7173 449.557 70.112C449.845 70.5067 450.282 70.704 450.869 70.704C451.647 70.704 452.111 70.3627 452.261 69.68H454.165C454.037 70.4587 453.679 71.072 453.093 71.52C452.485 71.9893 451.743 72.224 450.869 72.224C449.845 72.224 448.986 71.8507 448.293 71.104C447.578 70.3253 447.221 69.328 447.221 68.112C447.221 66.864 447.578 65.8613 448.293 65.104C448.975 64.3787 449.834 64.016 450.869 64.016C451.946 64.016 452.783 64.3947 453.381 65.152ZM450.885 65.52C450.351 65.52 449.935 65.696 449.637 66.048C449.338 66.3893 449.162 66.832 449.109 67.376H452.421C452.421 66.5333 452.154 65.968 451.621 65.68C451.418 65.5733 451.173 65.52 450.885 65.52ZM463.545 72H461.241L459.321 69.504L457.529 72H455.209L458.233 68.128L455.209 64.208H457.529L459.433 66.704L461.241 64.208H463.545L460.537 68.128L463.545 72ZM469.685 71.808C468.981 72.0853 468.426 72.224 468.021 72.224C467.615 72.224 467.258 72.176 466.949 72.08C466.65 71.984 466.383 71.84 466.149 71.648C465.658 71.2107 465.413 70.608 465.413 69.84V65.488H464.325V64.224H465.413V62.176H467.301V64.224H469.413V65.488H467.301V69.776C467.301 70.416 467.605 70.736 468.213 70.736C468.522 70.736 468.922 70.6507 469.413 70.48L469.685 71.808ZM477.037 65.152C477.304 65.4933 477.501 65.888 477.629 66.336C477.768 66.784 477.837 67.1947 477.837 67.568C477.837 67.9413 477.816 68.2773 477.773 68.576H472.749C472.77 69.2053 472.925 69.7173 473.213 70.112C473.501 70.5067 473.938 70.704 474.525 70.704C475.304 70.704 475.768 70.3627 475.917 69.68H477.821C477.693 70.4587 477.336 71.072 476.749 71.52C476.141 71.9893 475.4 72.224 474.525 72.224C473.501 72.224 472.642 71.8507 471.949 71.104C471.234 70.3253 470.877 69.328 470.877 68.112C470.877 66.864 471.234 65.8613 471.949 65.104C472.632 64.3787 473.49 64.016 474.525 64.016C475.602 64.016 476.44 64.3947 477.037 65.152ZM474.541 65.52C474.008 65.52 473.592 65.696 473.293 66.048C472.994 66.3893 472.818 66.832 472.765 67.376H476.077C476.077 66.5333 475.81 65.968 475.277 65.68C475.074 65.5733 474.829 65.52 474.541 65.52ZM481.953 65.568C482.465 64.5333 483.287 64.016 484.417 64.016C485.377 64.016 486.097 64.3307 486.577 64.96C487.068 65.5893 487.313 66.4213 487.313 67.456V72H485.425V67.456C485.425 66.88 485.287 66.448 485.009 66.16C484.732 65.8613 484.343 65.712 483.841 65.712C483.34 65.712 482.908 65.936 482.545 66.384C482.193 66.832 482.007 67.504 481.985 68.4V72H480.097V64.224H481.745L481.953 65.568ZM491.122 69.632C491.143 70.368 491.682 70.736 492.738 70.736C493.143 70.736 493.474 70.6507 493.73 70.48C493.997 70.2987 494.13 70.0907 494.13 69.856C494.13 69.6213 494.05 69.44 493.89 69.312C493.73 69.184 493.479 69.0667 493.138 68.96L491.442 68.352C490.183 67.9147 489.554 67.2 489.554 66.208C489.554 65.5467 489.847 65.0187 490.434 64.624C491.031 64.2187 491.826 64.016 492.818 64.016C493.821 64.016 494.589 64.2347 495.122 64.672C495.666 65.1093 495.949 65.6587 495.97 66.32H494.194C494.173 66.064 494.05 65.8613 493.826 65.712C493.602 65.5627 493.282 65.488 492.866 65.488C492.45 65.488 492.125 65.5733 491.89 65.744C491.666 65.904 491.554 66.0907 491.554 66.304C491.554 66.6773 491.869 66.9547 492.498 67.136L494.338 67.824C494.946 68.0267 495.41 68.288 495.73 68.608C496.061 68.9173 496.226 69.3227 496.226 69.824C496.226 70.464 495.922 71.0187 495.314 71.488C494.685 71.9787 493.853 72.224 492.818 72.224C491.783 72.224 490.951 72 490.322 71.552C489.693 71.0933 489.373 70.4533 489.362 69.632H491.122ZM498.664 64.208H500.552V72H498.664V64.208ZM498.44 61.712C498.44 61.3707 498.541 61.104 498.744 60.912C498.946 60.7093 499.234 60.608 499.608 60.608C499.97 60.608 500.253 60.7093 500.456 60.912C500.669 61.104 500.776 61.3707 500.776 61.712C500.776 62.0533 500.669 62.3253 500.456 62.528C500.253 62.72 499.97 62.816 499.608 62.816C499.234 62.816 498.946 62.72 498.744 62.528C498.541 62.3253 498.44 62.0533 498.44 61.712ZM506.81 64.016C507.332 64.016 507.823 64.1013 508.282 64.272C508.74 64.432 509.135 64.6827 509.466 65.024C510.202 65.7707 510.57 66.8053 510.57 68.128C510.57 69.4293 510.202 70.4533 509.466 71.2C508.804 71.8827 507.919 72.224 506.81 72.224C505.7 72.224 504.804 71.8827 504.122 71.2C503.386 70.464 503.018 69.44 503.018 68.128C503.018 66.7947 503.386 65.76 504.122 65.024C504.794 64.352 505.69 64.016 506.81 64.016ZM508.682 68.112C508.682 67.2907 508.522 66.6773 508.202 66.272C507.882 65.856 507.434 65.648 506.858 65.648C506.292 65.648 505.828 65.856 505.466 66.272C505.103 66.6773 504.922 67.2907 504.922 68.112C504.922 68.9333 505.082 69.552 505.402 69.968C505.732 70.3733 506.18 70.576 506.746 70.576C507.311 70.576 507.775 70.3733 508.138 69.968C508.5 69.552 508.682 68.9333 508.682 68.112ZM514.672 65.568C515.184 64.5333 516.005 64.016 517.136 64.016C518.096 64.016 518.816 64.3307 519.296 64.96C519.787 65.5893 520.032 66.4213 520.032 67.456V72H518.144V67.456C518.144 66.88 518.005 66.448 517.728 66.16C517.451 65.8613 517.061 65.712 516.56 65.712C516.059 65.712 515.627 65.936 515.264 66.384C514.912 66.832 514.725 67.504 514.704 68.4V72H512.816V64.224H514.464L514.672 65.568ZM528.688 65.568C529.2 64.5333 530.021 64.016 531.152 64.016C532.112 64.016 532.832 64.3307 533.312 64.96C533.802 65.5893 534.048 66.4213 534.048 67.456V72H532.16V67.456C532.16 66.88 532.021 66.448 531.744 66.16C531.466 65.8613 531.077 65.712 530.576 65.712C530.074 65.712 529.642 65.936 529.28 66.384C528.928 66.832 528.741 67.504 528.72 68.4V72H526.832V64.224H528.48L528.688 65.568ZM539.857 64.016C540.379 64.016 540.87 64.1013 541.329 64.272C541.787 64.432 542.182 64.6827 542.513 65.024C543.249 65.7707 543.617 66.8053 543.617 68.128C543.617 69.4293 543.249 70.4533 542.513 71.2C541.851 71.8827 540.966 72.224 539.857 72.224C538.747 72.224 537.851 71.8827 537.169 71.2C536.433 70.464 536.065 69.44 536.065 68.128C536.065 66.7947 536.433 65.76 537.169 65.024C537.841 64.352 538.737 64.016 539.857 64.016ZM541.729 68.112C541.729 67.2907 541.569 66.6773 541.249 66.272C540.929 65.856 540.481 65.648 539.905 65.648C539.339 65.648 538.875 65.856 538.513 66.272C538.15 66.6773 537.969 67.2907 537.969 68.112C537.969 68.9333 538.129 69.552 538.449 69.968C538.779 70.3733 539.227 70.576 539.793 70.576C540.358 70.576 540.822 70.3733 541.185 69.968C541.547 69.552 541.729 68.9333 541.729 68.112ZM546.551 64.224L548.119 69.776L549.607 64.656H551.319L552.807 69.792L554.391 64.224H556.279L553.719 72H551.863L550.423 67.344L549.015 72H547.143L544.567 64.224H546.551ZM557.876 61.376H559.924L559.7 68.496H558.084L557.876 61.376ZM558.9 72.144C558.516 72.144 558.201 72.0267 557.956 71.792C557.711 71.5573 557.588 71.2587 557.588 70.896C557.588 70.5333 557.711 70.2293 557.956 69.984C558.201 69.7387 558.516 69.616 558.9 69.616C559.284 69.616 559.604 69.7387 559.86 69.984C560.116 70.2293 560.244 70.5333 560.244 70.896C560.244 71.2587 560.116 71.5573 559.86 71.792C559.604 72.0267 559.284 72.144 558.9 72.144Z" fill="#C1E2D9"/>
<path d="M342.566 61.616H349.11V63.248H344.454V65.984H348.71V67.6H344.454V72H342.566V61.616ZM359.028 64.8C359.028 65.536 358.82 66.1653 358.404 66.688C357.988 67.2107 357.391 67.5733 356.612 67.776L359.396 72H356.932L354.644 67.952H353.204V72H351.316V61.616H355.156C356.383 61.616 357.337 61.9093 358.02 62.496C358.692 63.0613 359.028 63.8293 359.028 64.8ZM354.98 66.688C355.673 66.688 356.196 66.5333 356.548 66.224C356.9 65.904 357.076 65.488 357.076 64.976C357.076 64.4533 356.916 64.0373 356.596 63.728C356.276 63.408 355.796 63.248 355.156 63.248H353.204V66.688H354.98ZM361.597 61.616H368.285V63.248H363.485V65.984H367.981V67.616H363.485V70.352H368.285V72H361.597V61.616ZM370.972 61.616H377.66V63.248H372.86V65.984H377.356V67.616H372.86V70.352H377.66V72H370.972V61.616Z" fill="white"/>
</g>
<defs>
<clipPath id="clip0">
<rect width="1000" height="100" fill="white"/>
</clipPath>
</defs>
</svg>
